<svg xmlns="http://www.w3.org/2000/svg" viewBox="0 0 300 460">
  <defs>
    <linearGradient id="bg-cups-ten" x1="0" y1="0" x2="0.3" y2="1">
      <stop offset="0" stop-color="#EAF6FB"/>
      <stop offset="1" stop-color="#CFEFEA"/>
    </linearGradient>
  </defs>
  <rect x="4" y="4" width="292" height="452" rx="26" fill="url(#bg-cups-ten)"/>
  <rect x="12" y="12" width="276" height="436" rx="20" fill="none" stroke="#7FC4D9" stroke-width="2" stroke-opacity="0.55" stroke-dasharray="1 7" stroke-linecap="round"/>
  <g opacity="0.4"><path d="M 42,82.65 C 47.5,87.33 47.5,96.68 42,101.35 C 36.5,96.68 36.5,87.33 42,82.65 Z" fill="#9de2f7" transform="rotate(27 42 92)"/><path d="M 256,110.95 C 247.42,104.68 252.7,98.41 256,103.69 C 259.3,98.41 264.58,104.68 256,110.95 Z" fill="#7FC4D9"/><path d="M40,363.2 L42.82,369.18 L48.8,372 L42.82,374.82 L40,380.8 L37.18,374.82 L31.2,372 L37.18,369.18 Z" fill="#7FC4D9"/><path d="M258,343.2 L260.82,349.18 L266.8,352 L260.82,354.82 L258,360.8 L255.18,354.82 L249.2,352 L255.18,349.18 Z" fill="#7FC4D9"/></g>
  <circle cx="42" cy="46" r="18" fill="#7FC4D9" opacity="0.92"/>
  <text x="42" y="52" text-anchor="middle" font-family="'Noto Sans KR', 'Apple SD Gothic Neo', sans-serif" font-size="14" font-weight="700" fill="#ffffff">10</text>
  <g><g><path d="M 87.85,112.5 C 87.85,127.8 106.55,127.8 106.55,112.5 Z" fill="#7FC4D9"/><rect x="95.08" y="127.8" width="4.25" height="6.8" rx="0.85" fill="#7FC4D9" /><ellipse cx="97.2" cy="135.45" rx="7.65" ry="2.21" fill="#7FC4D9" /></g><g><path d="M 114.25,112.5 C 114.25,127.8 132.95,127.8 132.95,112.5 Z" fill="#7FC4D9"/><rect x="121.48" y="127.8" width="4.25" height="6.8" rx="0.85" fill="#7FC4D9" /><ellipse cx="123.6" cy="135.45" rx="7.65" ry="2.21" fill="#7FC4D9" /></g><g><path d="M 140.65,112.5 C 140.65,127.8 159.35,127.8 159.35,112.5 Z" fill="#7FC4D9"/><rect x="147.88" y="127.8" width="4.25" height="6.8" rx="0.85" fill="#7FC4D9" /><ellipse cx="150" cy="135.45" rx="7.65" ry="2.21" fill="#7FC4D9" /></g><g><path d="M 167.05,112.5 C 167.05,127.8 185.75,127.8 185.75,112.5 Z" fill="#7FC4D9"/><rect x="174.27" y="127.8" width="4.25" height="6.8" rx="0.85" fill="#7FC4D9" /><ellipse cx="176.4" cy="135.45" rx="7.65" ry="2.21" fill="#7FC4D9" /></g><g><path d="M 193.45,112.5 C 193.45,127.8 212.15,127.8 212.15,112.5 Z" fill="#7FC4D9"/><rect x="200.68" y="127.8" width="4.25" height="6.8" rx="0.85" fill="#7FC4D9" /><ellipse cx="202.8" cy="135.45" rx="7.65" ry="2.21" fill="#7FC4D9" /></g><g><path d="M 87.85,150.5 C 87.85,165.8 106.55,165.8 106.55,150.5 Z" fill="#7FC4D9"/><rect x="95.08" y="165.8" width="4.25" height="6.8" rx="0.85" fill="#7FC4D9" /><ellipse cx="97.2" cy="173.45" rx="7.65" ry="2.21" fill="#7FC4D9" /></g><g><path d="M 114.25,150.5 C 114.25,165.8 132.95,165.8 132.95,150.5 Z" fill="#7FC4D9"/><rect x="121.48" y="165.8" width="4.25" height="6.8" rx="0.85" fill="#7FC4D9" /><ellipse cx="123.6" cy="173.45" rx="7.65" ry="2.21" fill="#7FC4D9" /></g><g><path d="M 140.65,150.5 C 140.65,165.8 159.35,165.8 159.35,150.5 Z" fill="#7FC4D9"/><rect x="147.88" y="165.8" width="4.25" height="6.8" rx="0.85" fill="#7FC4D9" /><ellipse cx="150" cy="173.45" rx="7.65" ry="2.21" fill="#7FC4D9" /></g><g><path d="M 167.05,150.5 C 167.05,165.8 185.75,165.8 185.75,150.5 Z" fill="#7FC4D9"/><rect x="174.27" y="165.8" width="4.25" height="6.8" rx="0.85" fill="#7FC4D9" /><ellipse cx="176.4" cy="173.45" rx="7.65" ry="2.21" fill="#7FC4D9" /></g><g><path d="M 193.45,150.5 C 193.45,165.8 212.15,165.8 212.15,150.5 Z" fill="#7FC4D9"/><rect x="200.68" y="165.8" width="4.25" height="6.8" rx="0.85" fill="#7FC4D9" /><ellipse cx="202.8" cy="173.45" rx="7.65" ry="2.21" fill="#7FC4D9" /></g><g><ellipse cx="133.6" cy="232.28" rx="6.15" ry="13.94" fill="#c5ffff" transform="rotate(-16 133.6 232.28)" /><ellipse cx="166.4" cy="232.28" rx="6.15" ry="13.94" fill="#c5ffff" transform="rotate(16 166.4 232.28)" /><ellipse cx="150" cy="268.36" rx="29.52" ry="26.24" fill="#c5ffff" /><ellipse cx="137.7" cy="292.96" rx="7.38" ry="4.92" fill="#c5ffff" /><ellipse cx="162.3" cy="292.96" rx="7.38" ry="4.92" fill="#c5ffff" /><circle cx="140.16" cy="263.44" r="2.62" fill="#4A3F4D" /><circle cx="159.84" cy="263.44" r="2.62" fill="#4A3F4D" /><path d="M 143.44,270.82 Q 150,275.74 156.56,270.82" fill="none" stroke="#4A3F4D" stroke-width="2.05" stroke-linecap="round"/><circle cx="134.42" cy="271.64" r="3.69" fill="#7FC4D9" opacity="0.85"/><circle cx="165.58" cy="271.64" r="3.69" fill="#7FC4D9" opacity="0.85"/></g></g>
  <line x1="80" y1="378" x2="220" y2="378" stroke="#7FC4D9" stroke-width="1.5" stroke-opacity="0.7"/>
  <text x="150" y="406" text-anchor="middle" font-family="'Noto Sans KR', 'Apple SD Gothic Neo', sans-serif" font-size="22" font-weight="700" fill="#4A3F4D">컵의 10</text>
  <text x="150" y="428" text-anchor="middle" font-family="'Noto Sans KR', 'Apple SD Gothic Neo', sans-serif" font-size="10" letter-spacing="1" fill="#4A3F4D" opacity="0.65">TEN OF CUPS</text>
</svg>
