<svg xmlns="http://www.w3.org/2000/svg" viewBox="0 0 300 460">
  <defs>
    <linearGradient id="bg-pentacles-ten" x1="0" y1="0" x2="0.3" y2="1">
      <stop offset="0" stop-color="#F1FAEC"/>
      <stop offset="1" stop-color="#DFF0C8"/>
    </linearGradient>
  </defs>
  <rect x="4" y="4" width="292" height="452" rx="26" fill="url(#bg-pentacles-ten)"/>
  <rect x="12" y="12" width="276" height="436" rx="20" fill="none" stroke="#8FBF6E" stroke-width="2" stroke-opacity="0.55" stroke-dasharray="1 7" stroke-linecap="round"/>
  <g opacity="0.4"><path d="M 42,82.65 C 47.5,87.33 47.5,96.68 42,101.35 C 36.5,96.68 36.5,87.33 42,82.65 Z" fill="#addd8c" transform="rotate(27 42 92)"/><path d="M 256,110.95 C 247.42,104.68 252.7,98.41 256,103.69 C 259.3,98.41 264.58,104.68 256,110.95 Z" fill="#8FBF6E"/><path d="M40,363.2 L42.82,369.18 L48.8,372 L42.82,374.82 L40,380.8 L37.18,374.82 L31.2,372 L37.18,369.18 Z" fill="#8FBF6E"/><path d="M258,343.2 L260.82,349.18 L266.8,352 L260.82,354.82 L258,360.8 L255.18,354.82 L249.2,352 L255.18,349.18 Z" fill="#8FBF6E"/></g>
  <circle cx="42" cy="46" r="18" fill="#8FBF6E" opacity="0.92"/>
  <text x="42" y="52" text-anchor="middle" font-family="'Noto Sans KR', 'Apple SD Gothic Neo', sans-serif" font-size="14" font-weight="700" fill="#ffffff">10</text>
  <g><g><circle cx="97.2" cy="121" r="10.2" fill="none" stroke="#8FBF6E" stroke-width="2.55"/><path d="M97.2,115.9 L98.5,119.21 L102.05,119.42 L99.3,121.68 L100.2,125.13 L97.2,123.21 L94.2,125.13 L95.1,121.68 L92.35,119.42 L95.9,119.21 Z" fill="#8FBF6E"/></g><g><circle cx="123.6" cy="121" r="10.2" fill="none" stroke="#8FBF6E" stroke-width="2.55"/><path d="M123.6,115.9 L124.9,119.21 L128.45,119.42 L125.7,121.68 L126.6,125.13 L123.6,123.21 L120.6,125.13 L121.5,121.68 L118.75,119.42 L122.3,119.21 Z" fill="#8FBF6E"/></g><g><circle cx="150" cy="121" r="10.2" fill="none" stroke="#8FBF6E" stroke-width="2.55"/><path d="M150,115.9 L151.3,119.21 L154.85,119.42 L152.1,121.68 L153,125.13 L150,123.21 L147,125.13 L147.9,121.68 L145.15,119.42 L148.7,119.21 Z" fill="#8FBF6E"/></g><g><circle cx="176.4" cy="121" r="10.2" fill="none" stroke="#8FBF6E" stroke-width="2.55"/><path d="M176.4,115.9 L177.7,119.21 L181.25,119.42 L178.5,121.68 L179.4,125.13 L176.4,123.21 L173.4,125.13 L174.3,121.68 L171.55,119.42 L175.1,119.21 Z" fill="#8FBF6E"/></g><g><circle cx="202.8" cy="121" r="10.2" fill="none" stroke="#8FBF6E" stroke-width="2.55"/><path d="M202.8,115.9 L204.1,119.21 L207.65,119.42 L204.9,121.68 L205.8,125.13 L202.8,123.21 L199.8,125.13 L200.7,121.68 L197.95,119.42 L201.5,119.21 Z" fill="#8FBF6E"/></g><g><circle cx="97.2" cy="159" r="10.2" fill="none" stroke="#8FBF6E" stroke-width="2.55"/><path d="M97.2,153.9 L98.5,157.21 L102.05,157.42 L99.3,159.68 L100.2,163.13 L97.2,161.21 L94.2,163.13 L95.1,159.68 L92.35,157.42 L95.9,157.21 Z" fill="#8FBF6E"/></g><g><circle cx="123.6" cy="159" r="10.2" fill="none" stroke="#8FBF6E" stroke-width="2.55"/><path d="M123.6,153.9 L124.9,157.21 L128.45,157.42 L125.7,159.68 L126.6,163.13 L123.6,161.21 L120.6,163.13 L121.5,159.68 L118.75,157.42 L122.3,157.21 Z" fill="#8FBF6E"/></g><g><circle cx="150" cy="159" r="10.2" fill="none" stroke="#8FBF6E" stroke-width="2.55"/><path d="M150,153.9 L151.3,157.21 L154.85,157.42 L152.1,159.68 L153,163.13 L150,161.21 L147,163.13 L147.9,159.68 L145.15,157.42 L148.7,157.21 Z" fill="#8FBF6E"/></g><g><circle cx="176.4" cy="159" r="10.2" fill="none" stroke="#8FBF6E" stroke-width="2.55"/><path d="M176.4,153.9 L177.7,157.21 L181.25,157.42 L178.5,159.68 L179.4,163.13 L176.4,161.21 L173.4,163.13 L174.3,159.68 L171.55,157.42 L175.1,157.21 Z" fill="#8FBF6E"/></g><g><circle cx="202.8" cy="159" r="10.2" fill="none" stroke="#8FBF6E" stroke-width="2.55"/><path d="M202.8,153.9 L204.1,157.21 L207.65,157.42 L204.9,159.68 L205.8,163.13 L202.8,161.21 L199.8,163.13 L200.7,159.68 L197.95,157.42 L201.5,157.21 Z" fill="#8FBF6E"/></g><g><ellipse cx="133.6" cy="232.28" rx="6.15" ry="13.94" fill="#d5ffb4" transform="rotate(-16 133.6 232.28)" /><ellipse cx="166.4" cy="232.28" rx="6.15" ry="13.94" fill="#d5ffb4" transform="rotate(16 166.4 232.28)" /><ellipse cx="150" cy="268.36" rx="29.52" ry="26.24" fill="#d5ffb4" /><ellipse cx="137.7" cy="292.96" rx="7.38" ry="4.92" fill="#d5ffb4" /><ellipse cx="162.3" cy="292.96" rx="7.38" ry="4.92" fill="#d5ffb4" /><circle cx="140.16" cy="263.44" r="2.62" fill="#4A3F4D" /><circle cx="159.84" cy="263.44" r="2.62" fill="#4A3F4D" /><path d="M 143.44,270.82 Q 150,275.74 156.56,270.82" fill="none" stroke="#4A3F4D" stroke-width="2.05" stroke-linecap="round"/><circle cx="134.42" cy="271.64" r="3.69" fill="#8FBF6E" opacity="0.85"/><circle cx="165.58" cy="271.64" r="3.69" fill="#8FBF6E" opacity="0.85"/></g></g>
  <line x1="80" y1="378" x2="220" y2="378" stroke="#8FBF6E" stroke-width="1.5" stroke-opacity="0.7"/>
  <text x="150" y="406" text-anchor="middle" font-family="'Noto Sans KR', 'Apple SD Gothic Neo', sans-serif" font-size="22" font-weight="700" fill="#4A3F4D">펜타클의 10</text>
  <text x="150" y="428" text-anchor="middle" font-family="'Noto Sans KR', 'Apple SD Gothic Neo', sans-serif" font-size="10" letter-spacing="1" fill="#4A3F4D" opacity="0.65">TEN OF PENTACLES</text>
</svg>
