<svg xmlns="http://www.w3.org/2000/svg" viewBox="0 0 300 460">
  <defs>
    <linearGradient id="bg-garden-strength" x1="0" y1="0" x2="0.3" y2="1">
      <stop offset="0" stop-color="#FFF6EC"/>
      <stop offset="1" stop-color="#FBDCE6"/>
    </linearGradient>
  </defs>
  <rect x="4" y="4" width="292" height="452" rx="26" fill="url(#bg-garden-strength)"/>
  <rect x="12" y="12" width="276" height="436" rx="20" fill="none" stroke="#F1A0BE" stroke-width="2" stroke-opacity="0.6" stroke-dasharray="1 7" stroke-linecap="round"/>
  <g opacity="0.55"><g><path d="M 46,99.88 C 32.35,89.9 40.75,79.93 46,88.33 C 51.25,79.93 59.65,89.9 46,99.88 Z" fill="#F6A9C0"/></g><g><g><ellipse cx="263.52" cy="108" rx="9.92" ry="7.04" fill="#F6A9C0" /><ellipse cx="255.56" cy="118.96" rx="9.92" ry="7.04" fill="#F6A9C0" transform="rotate(72 255.56 118.96)" /><ellipse cx="242.68" cy="114.77" rx="9.92" ry="7.04" fill="#F6A9C0" transform="rotate(144 242.68 114.77)" /><ellipse cx="242.68" cy="101.23" rx="9.92" ry="7.04" fill="#F6A9C0" transform="rotate(216 242.68 101.23)" /><ellipse cx="255.56" cy="97.04" rx="9.92" ry="7.04" fill="#F6A9C0" transform="rotate(288 255.56 97.04)" /><circle cx="252" cy="108" r="6.72" fill="#BFE3F2" /></g></g><g><path d="M 44,356.7 C 53.35,364.35 53.35,379.65 44,387.3 C 34.65,379.65 34.65,364.35 44,356.7 Z" fill="#B7E4C7" transform="rotate(4.096805019266853 44 372)" /></g><g><g><ellipse cx="264.64" cy="350" rx="7.44" ry="5.28" fill="#F6A9C0" /><ellipse cx="258.67" cy="358.22" rx="7.44" ry="5.28" fill="#F6A9C0" transform="rotate(72 258.67 358.22)" /><ellipse cx="249.01" cy="355.08" rx="7.44" ry="5.28" fill="#F6A9C0" transform="rotate(144 249.01 355.08)" /><ellipse cx="249.01" cy="344.92" rx="7.44" ry="5.28" fill="#F6A9C0" transform="rotate(216 249.01 344.92)" /><ellipse cx="258.67" cy="341.78" rx="7.44" ry="5.28" fill="#F6A9C0" transform="rotate(288 258.67 341.78)" /><circle cx="256" cy="350" r="5.04" fill="#BFE3F2" /></g></g><g><path d="M 150,76.3 C 157.15,82.15 157.15,93.85 150,99.7 C 142.85,93.85 142.85,82.15 150,76.3 Z" fill="#B7E4C7" transform="rotate(-2.601492508311914 150 88)" /></g></g>
  <circle cx="42" cy="46" r="18" fill="#F1A0BE" opacity="0.9"/>
  <text x="42" y="52" text-anchor="middle" font-family="'Noto Sans KR', 'Apple SD Gothic Neo', sans-serif" font-size="14" font-weight="700" fill="#ffffff">VII</text>
  <g><ellipse cx="176" cy="246" rx="20" ry="16" fill="#F6A9C0" /><path d="M 160,234 L 154,222 L 166,226 Z" fill="#F6A9C0"/><circle cx="170" cy="240" r="2.4" fill="#5B4636" /><circle cx="182" cy="240" r="2.4" fill="#5B4636" /><g><ellipse cx="113.1" cy="194.2" rx="7.6" ry="17.1" fill="#AEE0C2" transform="rotate(-18 113.1 194.2)" /><ellipse cx="154.9" cy="194.2" rx="7.6" ry="17.1" fill="#AEE0C2" transform="rotate(18 154.9 194.2)" /><ellipse cx="134" cy="236" rx="36.1" ry="32.3" fill="#C6ECD4" /><ellipse cx="118.8" cy="266.4" rx="8.55" ry="5.7" fill="#AEE0C2" /><ellipse cx="149.2" cy="266.4" rx="8.55" ry="5.7" fill="#AEE0C2" /><circle cx="122.6" cy="230.3" r="3.04" fill="#5B4636" /><circle cx="145.4" cy="230.3" r="3.04" fill="#5B4636" /><path d="M 126.4,238.85 Q 134,244.55 141.6,238.85" fill="none" stroke="#5B4636" stroke-width="2.375" stroke-linecap="round"/><circle cx="115.95" cy="239.8" r="4.27" fill="#F6A9C0" opacity="0.85"/><circle cx="152.05" cy="239.8" r="4.27" fill="#F6A9C0" opacity="0.85"/></g></g>
  <line x1="90" y1="378" x2="210" y2="378" stroke="#F1A0BE" stroke-width="1.5" stroke-opacity="0.7"/>
  <text x="150" y="408" text-anchor="middle" font-family="'Noto Sans KR', 'Apple SD Gothic Neo', sans-serif" font-size="23" font-weight="700" fill="#5B4636">힘</text>
  <text x="150" y="428" text-anchor="middle" font-family="'Noto Sans KR', 'Apple SD Gothic Neo', sans-serif" font-size="10.5" letter-spacing="1.5" fill="#5B4636" opacity="0.65">STRENGTH</text>
</svg>
