<svg xmlns="http://www.w3.org/2000/svg" viewBox="0 0 300 460">
  <defs>
    <linearGradient id="bg-shop-hermit" x1="0" y1="0" x2="0.3" y2="1">
      <stop offset="0" stop-color="#F5EAFD"/>
      <stop offset="1" stop-color="#E4F6EA"/>
    </linearGradient>
  </defs>
  <rect x="4" y="4" width="292" height="452" rx="26" fill="url(#bg-shop-hermit)"/>
  <rect x="12" y="12" width="276" height="436" rx="20" fill="none" stroke="#B78CE0" stroke-width="2" stroke-opacity="0.6" stroke-dasharray="1 7" stroke-linecap="round"/>
  <g opacity="0.55"><g><path d="M46,80 L49.84,88.16 L58,92 L49.84,95.84 L46,104 L42.16,95.84 L34,92 L42.16,88.16 Z" fill="#FBF0DD"/></g><g><g><rect x="248.1" y="84.6" width="7.8" height="7.8" rx="1.56" fill="#B79A6B" /><path d="M 244.98,92.4 L 241.86,104.88 C 240.3,125.16 263.7,125.16 262.14,104.88 L 259.02,92.4 Z" fill="#F3B6D0" fill-opacity="0.9"/><path d="M 242.64,109.56 C 241.86,122.04 262.14,122.04 261.36,109.56 Z" fill="#C9A6EA"/><path d="M252,98.64 L253,100.76 L255.12,101.76 L253,102.76 L252,104.88 L251,102.76 L248.88,101.76 L251,100.76 Z" fill="#FFFFFF"/></g></g><g><g><rect x="39.8" y="346.8" width="8.4" height="8.4" rx="1.68" fill="#B79A6B" /><path d="M 36.44,355.2 L 33.08,368.64 C 31.4,390.48 56.6,390.48 54.92,368.64 L 51.56,355.2 Z" fill="#F3B6D0" fill-opacity="0.9"/><path d="M 33.92,373.68 C 33.08,387.12 54.92,387.12 54.08,373.68 Z" fill="#C9A6EA"/><path d="M44,361.92 L45.08,364.2 L47.36,365.28 L45.08,366.36 L44,368.64 L42.92,366.36 L40.64,365.28 L42.92,364.2 Z" fill="#FFFFFF"/></g></g><g><g><circle cx="243.4" cy="350" r="8.1" fill="none" stroke="#C9A6EA" stroke-width="3.5999999999999996"/><rect x="250.6" y="347.75" width="23.4" height="4.5" rx="1.8" fill="#C9A6EA" /><rect x="266.8" y="352.25" width="3.6" height="5.4" rx="0.9" fill="#C9A6EA" /><rect x="272.2" y="352.25" width="3.6" height="8.1" rx="0.9" fill="#C9A6EA" /></g></g><g><g><rect x="143.28" y="81.28" width="13.44" height="33.6" rx="2.24" fill="#C9A6EA" /><circle cx="150" cy="79.04" r="10.08" fill="#FFF7E0" opacity="0.6"/><path d="M 150,65.6 C 156.72,74.56 153.36,81.28 150,83.52 C 146.64,81.28 143.28,74.56 150,65.6 Z" fill="#FBF0DD"/></g></g></g>
  <circle cx="42" cy="46" r="18" fill="#B78CE0" opacity="0.9"/>
  <text x="42" y="52" text-anchor="middle" font-family="'Noto Sans KR', 'Apple SD Gothic Neo', sans-serif" font-size="14" font-weight="700" fill="#ffffff">VIII</text>
  <g><g><path d="M 150,198 C 184,204 186,258 150,274 C 114,258 116,204 150,198 Z" fill="#DCC2F2"/><ellipse cx="140" cy="200" rx="4" ry="7" fill="#CBA8ED" transform="rotate(-20 140 200)" /><ellipse cx="160" cy="200" rx="4" ry="7" fill="#CBA8ED" transform="rotate(20 160 200)" /><circle cx="138" cy="232" r="3.2" fill="#4A2F5E" /><circle cx="162" cy="232" r="3.2" fill="#4A2F5E" /><path d="M 142,241 Q 150,247 158,241" fill="none" stroke="#4A2F5E" stroke-width="2.5" stroke-linecap="round"/><circle cx="131" cy="242" r="4.5" fill="#F3B6D0" opacity="0.85"/><circle cx="169" cy="242" r="4.5" fill="#F3B6D0" opacity="0.85"/></g><rect x="178" y="228" width="16" height="20" rx="3" fill="#F3B6D0" /><circle cx="186" cy="236" r="6" fill="#FBF0DD" /><line x1="186" y1="228" x2="186" y2="218" stroke="#4A2F5E" stroke-width="2.5" stroke-linecap="round" /></g>
  <line x1="90" y1="378" x2="210" y2="378" stroke="#B78CE0" stroke-width="1.5" stroke-opacity="0.7"/>
  <text x="150" y="408" text-anchor="middle" font-family="'Noto Sans KR', 'Apple SD Gothic Neo', sans-serif" font-size="23" font-weight="700" fill="#4A2F5E">은둔자</text>
  <text x="150" y="428" text-anchor="middle" font-family="'Noto Sans KR', 'Apple SD Gothic Neo', sans-serif" font-size="10.5" letter-spacing="1.5" fill="#4A2F5E" opacity="0.65">HERMIT</text>
</svg>
