<svg xmlns="http://www.w3.org/2000/svg" viewBox="0 0 300 460">
  <defs>
    <linearGradient id="bg-shop-justice" x1="0" y1="0" x2="0.3" y2="1">
      <stop offset="0" stop-color="#F5EAFD"/>
      <stop offset="1" stop-color="#E4F6EA"/>
    </linearGradient>
  </defs>
  <rect x="4" y="4" width="292" height="452" rx="26" fill="url(#bg-shop-justice)"/>
  <rect x="12" y="12" width="276" height="436" rx="20" fill="none" stroke="#B78CE0" stroke-width="2" stroke-opacity="0.6" stroke-dasharray="1 7" stroke-linecap="round"/>
  <g opacity="0.55"><g><g><rect x="42.4" y="70.4" width="7.2" height="7.2" rx="1.44" fill="#B79A6B" /><path d="M 39.52,77.6 L 36.64,89.12 C 35.2,107.84 56.8,107.84 55.36,89.12 L 52.48,77.6 Z" fill="#F3B6D0" fill-opacity="0.9"/><path d="M 37.36,93.44 C 36.64,104.96 55.36,104.96 54.64,93.44 Z" fill="#C9A6EA"/><path d="M46,83.36 L46.92,85.32 L48.88,86.24 L46.92,87.16 L46,89.12 L45.08,87.16 L43.12,86.24 L45.08,85.32 Z" fill="#FFFFFF"/></g></g><g><g><circle cx="241.08" cy="108" r="7.02" fill="none" stroke="#C9A6EA" stroke-width="3.12"/><rect x="247.32" y="106.05" width="20.28" height="3.9" rx="1.56" fill="#C9A6EA" /><rect x="261.36" y="109.95" width="3.12" height="4.68" rx="0.78" fill="#C9A6EA" /><rect x="266.04" y="109.95" width="3.12" height="7.02" rx="0.78" fill="#C9A6EA" /></g></g><g><g><rect x="38.12" y="366.12" width="11.76" height="29.4" rx="1.96" fill="#C9A6EA" /><circle cx="44" cy="364.16" r="8.82" fill="#FFF7E0" opacity="0.6"/><path d="M 44,352.4 C 49.88,360.24 46.94,366.12 44,368.08 C 41.06,366.12 38.12,360.24 44,352.4 Z" fill="#FBF0DD"/></g></g><g><path d="M256,335 L260.8,345.2 L271,350 L260.8,354.8 L256,365 L251.2,354.8 L241,350 L251.2,345.2 Z" fill="#FBF0DD"/></g><g><g><rect x="145.2" y="59.2" width="9.6" height="9.6" rx="1.92" fill="#B79A6B" /><path d="M 141.36,68.8 L 137.52,84.16 C 135.6,109.12 164.4,109.12 162.48,84.16 L 158.64,68.8 Z" fill="#F3B6D0" fill-opacity="0.9"/><path d="M 138.48,89.92 C 137.52,105.28 162.48,105.28 161.52,89.92 Z" fill="#C9A6EA"/><path d="M150,76.48 L151.23,79.09 L153.84,80.32 L151.23,81.55 L150,84.16 L148.77,81.55 L146.16,80.32 L148.77,79.09 Z" fill="#FFFFFF"/></g></g></g>
  <circle cx="42" cy="46" r="18" fill="#B78CE0" opacity="0.9"/>
  <text x="42" y="52" text-anchor="middle" font-family="'Noto Sans KR', 'Apple SD Gothic Neo', sans-serif" font-size="14" font-weight="700" fill="#ffffff">X</text>
  <g><g><path d="M 150,202 C 184,208 186,262 150,278 C 114,262 116,208 150,202 Z" fill="#DCC2F2"/><ellipse cx="140" cy="204" rx="4" ry="7" fill="#CBA8ED" transform="rotate(-20 140 204)" /><ellipse cx="160" cy="204" rx="4" ry="7" fill="#CBA8ED" transform="rotate(20 160 204)" /><circle cx="138" cy="236" r="3.2" fill="#4A2F5E" /><circle cx="162" cy="236" r="3.2" fill="#4A2F5E" /><path d="M 142,245 Q 150,251 158,245" fill="none" stroke="#4A2F5E" stroke-width="2.5" stroke-linecap="round"/><circle cx="131" cy="246" r="4.5" fill="#F3B6D0" opacity="0.85"/><circle cx="169" cy="246" r="4.5" fill="#F3B6D0" opacity="0.85"/></g><line x1="150" y1="194" x2="150" y2="228" stroke="#4A2F5E" stroke-width="3" stroke-linecap="round" /><line x1="128" y1="202" x2="172" y2="202" stroke="#4A2F5E" stroke-width="3" stroke-linecap="round" /><circle cx="128" cy="216" r="8" fill="#C9A6EA" /><circle cx="172" cy="216" r="8" fill="#C9A6EA" /><line x1="128" y1="202" x2="128" y2="208" stroke="#4A2F5E" stroke-width="2" stroke-linecap="round" /><line x1="172" y1="202" x2="172" y2="208" stroke="#4A2F5E" stroke-width="2" stroke-linecap="round" /></g>
  <line x1="90" y1="378" x2="210" y2="378" stroke="#B78CE0" stroke-width="1.5" stroke-opacity="0.7"/>
  <text x="150" y="408" text-anchor="middle" font-family="'Noto Sans KR', 'Apple SD Gothic Neo', sans-serif" font-size="23" font-weight="700" fill="#4A2F5E">정의</text>
  <text x="150" y="428" text-anchor="middle" font-family="'Noto Sans KR', 'Apple SD Gothic Neo', sans-serif" font-size="10.5" letter-spacing="1.5" fill="#4A2F5E" opacity="0.65">JUSTICE</text>
</svg>
