<svg xmlns="http://www.w3.org/2000/svg" viewBox="0 0 300 460">
  <defs>
    <linearGradient id="bg-night-magician" x1="0" y1="0" x2="0.3" y2="1">
      <stop offset="0" stop-color="#E9E4F7"/>
      <stop offset="1" stop-color="#CBDCF2"/>
    </linearGradient>
  </defs>
  <rect x="4" y="4" width="292" height="452" rx="26" fill="url(#bg-night-magician)"/>
  <rect x="12" y="12" width="276" height="436" rx="20" fill="none" stroke="#8C8CD9" stroke-width="2" stroke-opacity="0.6" stroke-dasharray="1 7" stroke-linecap="round"/>
  <g opacity="0.55"><g><g><circle cx="32.5" cy="94.25" r="8.25" fill="#BBD6F2" /><circle cx="43.75" cy="88.25" r="10.5" fill="#BBD6F2" /><circle cx="57.25" cy="93.5" r="8.7" fill="#BBD6F2" /><ellipse cx="46" cy="98.75" rx="20.25" ry="8.25" fill="#BBD6F2" /></g></g><g><path d="M252,92 L255.95,102.56 L267.22,103.06 L258.39,110.08 L261.4,120.94 L252,114.72 L242.6,120.94 L245.61,110.08 L236.78,103.06 L248.05,102.56 Z" fill="#FBE28A"/></g><g><path d="M44,355 L49.44,366.56 L61,372 L49.44,377.44 L44,389 L38.56,377.44 L27,372 L38.56,366.56 Z" fill="#FBE28A"/></g><g><g><circle cx="245.2" cy="351.8" r="6.6" fill="#BBD6F2" /><circle cx="254.2" cy="347" r="8.4" fill="#BBD6F2" /><circle cx="265" cy="351.2" r="6.96" fill="#BBD6F2" /><ellipse cx="256" cy="355.4" rx="16.2" ry="6.6" fill="#BBD6F2" /></g></g><g><path d="M150,75 L154.16,83.84 L163,88 L154.16,92.16 L150,101 L145.84,92.16 L137,88 L145.84,83.84 Z" fill="#FBE28A"/></g></g>
  <circle cx="42" cy="46" r="18" fill="#8C8CD9" opacity="0.9"/>
  <text x="42" y="52" text-anchor="middle" font-family="'Noto Sans KR', 'Apple SD Gothic Neo', sans-serif" font-size="14" font-weight="700" fill="#ffffff">I</text>
  <g><line x1="180" y1="222" x2="204" y2="178" stroke="#332F5C" stroke-width="4" stroke-linecap="round" /><path d="M206,165 L208.35,170.76 L214.56,171.22 L209.8,175.24 L211.29,181.28 L206,178 L200.71,181.28 L202.2,175.24 L197.44,171.22 L203.65,170.76 Z" fill="#FBE28A"/><g><g><circle cx="111.6" cy="241.4" r="19.8" fill="#D9D3F6" /><circle cx="138.6" cy="227" r="25.2" fill="#D9D3F6" /><circle cx="171" cy="239.6" r="20.88" fill="#D9D3F6" /><ellipse cx="144" cy="252.2" rx="48.6" ry="19.8" fill="#D9D3F6" /></g><path d="M120,208 L122.56,213.44 L128,216 L122.56,218.56 L120,224 L117.44,218.56 L112,216 L117.44,213.44 Z" fill="#FBE28A"/><circle cx="132" cy="230" r="3.2" fill="#332F5C" /><circle cx="156" cy="230" r="3.2" fill="#332F5C" /><path d="M 136,239 Q 144,245 152,239" fill="none" stroke="#332F5C" stroke-width="2.5" stroke-linecap="round"/><circle cx="125" cy="240" r="4.5" fill="#F6C6D0" opacity="0.85"/><circle cx="163" cy="240" r="4.5" fill="#F6C6D0" opacity="0.85"/></g><path d="M110,196 L111.92,200.08 L116,202 L111.92,203.92 L110,208 L108.08,203.92 L104,202 L108.08,200.08 Z" fill="#8C8CD9"/></g>
  <line x1="90" y1="378" x2="210" y2="378" stroke="#8C8CD9" stroke-width="1.5" stroke-opacity="0.7"/>
  <text x="150" y="408" text-anchor="middle" font-family="'Noto Sans KR', 'Apple SD Gothic Neo', sans-serif" font-size="23" font-weight="700" fill="#332F5C">마법사</text>
  <text x="150" y="428" text-anchor="middle" font-family="'Noto Sans KR', 'Apple SD Gothic Neo', sans-serif" font-size="10.5" letter-spacing="1.5" fill="#332F5C" opacity="0.65">MAGICIAN</text>
</svg>
