<svg xmlns="http://www.w3.org/2000/svg" viewBox="0 0 300 460">
  <defs>
    <linearGradient id="bg-night-death" x1="0" y1="0" x2="0.3" y2="1">
      <stop offset="0" stop-color="#E9E4F7"/>
      <stop offset="1" stop-color="#CBDCF2"/>
    </linearGradient>
  </defs>
  <rect x="4" y="4" width="292" height="452" rx="26" fill="url(#bg-night-death)"/>
  <rect x="12" y="12" width="276" height="436" rx="20" fill="none" stroke="#8C8CD9" stroke-width="2" stroke-opacity="0.6" stroke-dasharray="1 7" stroke-linecap="round"/>
  <g opacity="0.55"><g><g><circle cx="32.5" cy="94.25" r="8.25" fill="#BBD6F2" /><circle cx="43.75" cy="88.25" r="10.5" fill="#BBD6F2" /><circle cx="57.25" cy="93.5" r="8.7" fill="#BBD6F2" /><ellipse cx="46" cy="98.75" rx="20.25" ry="8.25" fill="#BBD6F2" /></g></g><g><path d="M252,92 L255.95,102.56 L267.22,103.06 L258.39,110.08 L261.4,120.94 L252,114.72 L242.6,120.94 L245.61,110.08 L236.78,103.06 L248.05,102.56 Z" fill="#FBE28A"/></g><g><path d="M44,355 L49.44,366.56 L61,372 L49.44,377.44 L44,389 L38.56,377.44 L27,372 L38.56,366.56 Z" fill="#FBE28A"/></g><g><g><circle cx="245.2" cy="351.8" r="6.6" fill="#BBD6F2" /><circle cx="254.2" cy="347" r="8.4" fill="#BBD6F2" /><circle cx="265" cy="351.2" r="6.96" fill="#BBD6F2" /><ellipse cx="256" cy="355.4" rx="16.2" ry="6.6" fill="#BBD6F2" /></g></g><g><path d="M150,75 L154.16,83.84 L163,88 L154.16,92.16 L150,101 L145.84,92.16 L137,88 L145.84,83.84 Z" fill="#FBE28A"/></g></g>
  <circle cx="42" cy="46" r="18" fill="#8C8CD9" opacity="0.9"/>
  <text x="42" y="52" text-anchor="middle" font-family="'Noto Sans KR', 'Apple SD Gothic Neo', sans-serif" font-size="14" font-weight="700" fill="#ffffff">XI</text>
  <g><path d="M 124,252 Q 120,228 130,212" fill="none" stroke="#332F5C" stroke-width="3" stroke-linecap="round"/><g><ellipse cx="136.48" cy="210" rx="5.58" ry="3.96" fill="#C9C2B8" /><ellipse cx="132" cy="216.16" rx="5.58" ry="3.96" fill="#C9C2B8" transform="rotate(72 132 216.16)" /><ellipse cx="124.76" cy="213.81" rx="5.58" ry="3.96" fill="#C9C2B8" transform="rotate(144 124.76 213.81)" /><ellipse cx="124.76" cy="206.19" rx="5.58" ry="3.96" fill="#C9C2B8" transform="rotate(216 124.76 206.19)" /><ellipse cx="132" cy="203.84" rx="5.58" ry="3.96" fill="#C9C2B8" transform="rotate(288 132 203.84)" /><circle cx="130" cy="210" r="3.78" fill="#ADA69A" /></g><path d="M 170,252 Q 174,226 172,208" fill="none" stroke="#332F5C" stroke-width="3" stroke-linecap="round"/><g><ellipse cx="179.92" cy="206" rx="6.82" ry="4.84" fill="#8C8CD9" /><ellipse cx="174.45" cy="213.53" rx="6.82" ry="4.84" fill="#8C8CD9" transform="rotate(72 174.45 213.53)" /><ellipse cx="165.59" cy="210.66" rx="6.82" ry="4.84" fill="#8C8CD9" transform="rotate(144 165.59 210.66)" /><ellipse cx="165.59" cy="201.34" rx="6.82" ry="4.84" fill="#8C8CD9" transform="rotate(216 165.59 201.34)" /><ellipse cx="174.45" cy="198.47" rx="6.82" ry="4.84" fill="#8C8CD9" transform="rotate(288 174.45 198.47)" /><circle cx="172" cy="206" r="4.62" fill="#FBE28A" /></g><g><g><circle cx="125.7" cy="262.05" r="14.85" fill="#D9D3F6" /><circle cx="145.95" cy="251.25" r="18.9" fill="#D9D3F6" /><circle cx="170.25" cy="260.7" r="15.66" fill="#D9D3F6" /><ellipse cx="150" cy="270.15" rx="36.45" ry="14.85" fill="#D9D3F6" /></g><path d="M132,237 L133.92,241.08 L138,243 L133.92,244.92 L132,249 L130.08,244.92 L126,243 L130.08,241.08 Z" fill="#FBE28A"/><circle cx="141" cy="253.5" r="2.4" fill="#332F5C" /><circle cx="159" cy="253.5" r="2.4" fill="#332F5C" /><path d="M 144,260.25 Q 150,264.75 156,260.25" fill="none" stroke="#332F5C" stroke-width="1.875" stroke-linecap="round"/><circle cx="135.75" cy="261" r="3.38" fill="#F6C6D0" opacity="0.85"/><circle cx="164.25" cy="261" r="3.38" fill="#F6C6D0" opacity="0.85"/></g></g>
  <line x1="90" y1="378" x2="210" y2="378" stroke="#8C8CD9" stroke-width="1.5" stroke-opacity="0.7"/>
  <text x="150" y="408" text-anchor="middle" font-family="'Noto Sans KR', 'Apple SD Gothic Neo', sans-serif" font-size="23" font-weight="700" fill="#332F5C">죽음</text>
  <text x="150" y="428" text-anchor="middle" font-family="'Noto Sans KR', 'Apple SD Gothic Neo', sans-serif" font-size="10.5" letter-spacing="1.5" fill="#332F5C" opacity="0.65">DEATH</text>
</svg>
